<svg id="Component_54_12" data-name="Component 54 – 12" xmlns="http://www.w3.org/2000/svg" width="210.764" height="100.315" viewBox="0 0 240.764 51.315">
                                          <g id="Group_106" data-name="Group 106">
                                            <path id="Path_120" data-name="Path 120" d="M197.874,138.562a10.737,10.737,0,0,1,7.537,3.11,10.929,10.929,0,0,0,7.516,3.11,10.606,10.606,0,1,0,0-21.211,10.9,10.9,0,0,0-7.516,3.1,10.708,10.708,0,0,1-7.537,3.131h0a10.67,10.67,0,0,1-7.527-3.131,10.886,10.886,0,0,0-7.506-3.1,10.606,10.606,0,1,0,0,21.211,10.912,10.912,0,0,0,7.506-3.11,10.727,10.727,0,0,1,7.527-3.11Z" transform="translate(-130.663 -108.596)" fill="#e31b23"></path>
                                            <path id="Path_121" data-name="Path 121" d="M142.908,117.319a10.682,10.682,0,0,1,3.121-7.527,10.944,10.944,0,0,0,3.11-7.516A10.619,10.619,0,0,0,138.533,91.66h0a10.6,10.6,0,0,0-10.606,10.616,10.918,10.918,0,0,0,3.1,7.516,10.654,10.654,0,0,1,3.12,7.527h0a10.655,10.655,0,0,1-3.12,7.527,10.884,10.884,0,0,0-3.1,7.506,10.6,10.6,0,0,0,10.606,10.616h0a10.619,10.619,0,0,0,10.606-10.616,10.924,10.924,0,0,0-3.11-7.506,10.654,10.654,0,0,1-3.121-7.527Z" transform="translate(-107.141 -91.656)" fill="#e31b23"></path>
                                            <path id="Path_122" data-name="Path 122" d="M104.845,134.069a10.611,10.611,0,1,1-10.616-10.626,10.605,10.605,0,0,1,10.616,10.626" transform="translate(-83.623 -108.531)" fill="#373434"></path>
                                          </g>
                                          
                                        </svg>